<?xml version="1.0" encoding="utf-8"?>
<!-- Generator: Adobe Illustrator 23.0.3, SVG Export Plug-In . SVG Version: 6.00 Build 0)  -->
<svg version="1.1" id="Ebene_1" xmlns="http://www.w3.org/2000/svg" xmlns:xlink="http://www.w3.org/1999/xlink" x="0px" y="0px"
	 viewBox="0 0 68.03 79.37" style="enable-background:new 0 0 68.03 79.37;" xml:space="preserve">
<style type="text/css">
	.st0{fill:#006FB9;stroke:#FFFFFF;stroke-miterlimit:10;}
	.st1{fill:#FFFFFF;}
	.st2{fill-rule:evenodd;clip-rule:evenodd;fill:#FFFFFF;}
</style>
<g>
	<polygon class="st0" points="0.77,20.47 0.77,59.21 34.08,78.58 67.4,59.21 67.4,20.47 34.08,1.1 	"/>
	<g id="RETSCH">
		<polygon id="h_1_" class="st1" points="53.44,36.16 53.44,43.48 56.25,43.48 56.25,39.34 58.32,39.34 58.32,43.48 61.13,43.48 
			61.13,38.19 56.3,38.19 56.3,36.16 		"/>
		<polygon id="c_1_" class="st1" points="52.2,39.34 52.2,38.19 45.3,38.19 45.3,43.48 52.16,43.48 52.16,42.38 48.15,42.38 
			48.15,39.34 		"/>
		<polygon id="s_1_" class="st1" points="43.69,38.19 36.83,38.19 36.83,41.36 40.84,41.36 40.84,42.37 36.83,42.37 36.83,43.48 
			43.69,43.48 43.69,40.26 39.59,40.26 39.59,39.34 43.69,39.34 		"/>
		<polygon id="t_1_" class="st1" points="33.98,37.13 31.13,37.13 31.13,38.19 29.56,38.19 29.56,39.34 31.13,39.34 31.13,43.48 
			33.98,43.48 33.98,39.34 35.5,39.34 35.5,38.19 33.98,38.19 		"/>
		<path id="e_1_" class="st2" d="M20.73,38.19v5.29h7.64v-1.1h-4.92v-1.01h4.92V38.2h-7.64V38.19z M24.5,39.34
			c-0.58-0.02-1.05-0.02-1.06,0v0.92c0.01,0.02,0.48,0.02,1.06,0c0.59,0.02,1.06,0.02,1.06,0v-0.92
			C25.56,39.32,25.09,39.32,24.5,39.34"/>
		<path id="R_1_" class="st2" d="M6.69,34.32v11c0.02,0,12.61,0,12.61,0v-11C19.3,34.3,6.71,34.3,6.69,34.32 M11.85,37.59l3.17,0.04
			l-0.37,1.7h-3.13L11.85,37.59z M18.89,36.16H8.67L7.1,43.48h3.45l0.6-2.71l2.81,2.71h3.82l-2.85-2.71h2.9L18.89,36.16z"/>
	</g>
</g>
</svg>
