<?xml version="1.0" encoding="UTF-8"?>
<svg viewBox="0 0 115.03 109.8" xmlns="http://www.w3.org/2000/svg">
 <g display="none">
  <path d="m7.5842 8.6498v69c0 2.484 3.808 4.5 8.5 4.5s8.5-2.016 8.5-4.5v-69h-17z" fill="#c5d9f9" fill-opacity=".818" stroke="#000"/>
  <g transform="matrix(.3617 0 0 1 16.2 16.2)">
   <path d="m22.68-7.3002c0 2.4853-10.521 4.5-23.5 4.5s-23.5-2.0147-23.5-4.5 10.521-4.5 23.5-4.5 23.5 2.0147 23.5 4.5z" fill="#fff" stroke-width="2.434"/>
   <path d="m23.18-7.8002c0 2.4853-10.521 4.5-23.5 4.5s-23.5-2.0147-23.5-4.5 10.521-4.5 23.5-4.5 23.5 2.0147 23.5 4.5z" fill="#c5d9f9" fill-opacity=".818" stroke="#000" stroke-width="4.047"/>
  </g>
  <path d="m22.316 14.275c-0.13314 1.4477-1.591 2.6662-3.662 3.3006v59.273c0 0.95973-0.57845 1.8628-1.5391 2.5518 2.9849-0.42068 5.2188-1.9998 5.2188-3.8831v-61.242h-0.017693z" fill="#fffff9"/>
 </g>
 <g fill="#f00" stroke="#000">
  <path d="m9.8234 87.521l-9.2188 21.781h104.41l9.25-21.781h-104.44zm77.219 3.0938c4.692 0 8.5 2.016 8.5 4.5s-3.808 4.5-8.5 4.5-8.5-2.016-8.5-4.5 3.808-4.5 8.5-4.5zm-61 0.4062c4.692 0 8.5 2.016 8.5 4.5s-3.808 4.5-8.5 4.5c-4.692-8e-6 -8.5-2.016-8.5-4.5s3.808-4.5 8.5-4.5zm30 0.1875c4.692 0 8.5 2.016 8.5 4.5s-3.808 4.5-8.5 4.5c-4.692-8e-6 -8.5-2.016-8.5-4.5s3.808-4.5 8.5-4.5z"/>
  <path d="m9.8234 84.115l-9.2188 21.5h104.41l9.25-21.5h-104.44zm77.406 6c4.692-8e-6 8.5 2.016 8.5 4.5s-3.808 4.5-8.5 4.5-8.5-2.016-8.5-4.5c1.5e-5 -2.484 3.808-4.5 8.5-4.5zm-61 0.4062c4.692 0 8.5 2.016 8.5 4.5s-3.808 4.5-8.5 4.5-8.5-2.016-8.5-4.5c-1.1e-5 -2.484 3.808-4.5 8.5-4.5zm30 0.1875c4.692 0 8.5 2.016 8.5 4.5s-3.808 4.5-8.5 4.5c-4.692-8e-6 -8.5-2.016-8.5-4.5s3.808-4.5 8.5-4.5z"/>
  <rect x=".5" y="105.51" width="104.51" height="3.5"/>
 </g>
 <rect x="28.949" y="18.25" width="63.2" height="65.95" fill="#f00" stroke="#000"/>
 <g fill="#007fff">
  <path d="m17.79 29.356v66.531c0 2.3951 3.808 4.3438 8.5 4.3438s8.5-1.9486 8.5-4.3438v-66.531c-6.9e-5 7.51e-4 -0.03117-7.51e-4 -0.03125 0-0.2289 2.291-3.9241 4.125-8.4688 4.125-4.5454 0-8.241-1.8335-8.4688-4.125h-0.03125z" fill-opacity=".818" stroke="#000"/>
  <path d="m32.537 34.792c-0.13314 1.3959-1.591 2.5708-3.662 3.1825v57.152c0 0.92539-0.57845 1.7961-1.5391 2.4604 2.9849-0.40562 5.2188-1.9282 5.2188-3.7441v-59.05h-0.017681z"/>
  <path d="m78.916 28.168v66.531c0 2.3951 3.808 4.3438 8.5 4.3438s8.5-1.9486 8.5-4.3438v-66.531h-0.03125c-0.25808 2.277-3.9439 4.0938-8.4688 4.0938-4.5238 0-8.2091-1.8176-8.4688-4.0938h-0.03125z" fill-opacity=".818" stroke="#000"/>
  <path d="m93.637 33.592c-0.13314 1.3959-1.591 2.5708-3.662 3.1825v57.152c0 0.92539-0.57845 1.7961-1.5391 2.4604 2.9849-0.40562 5.2188-1.9282 5.2188-3.7441v-59.05h-0.017693z"/>
  <path d="m47.916 29.418v66.531c0 2.3951 3.808 4.3438 8.5 4.3438s8.5-1.9486 8.5-4.3438v-66.531h-0.03125c-0.25808 2.277-3.9439 4.0938-8.4688 4.0938-4.5238 0-8.2091-1.8176-8.4688-4.0938h-0.03125z" fill-opacity=".818" stroke="#000"/>
  <path d="m62.637 34.842c-0.13314 1.3959-1.591 2.5708-3.662 3.1825v57.152c0 0.92539-0.57846 1.7961-1.5391 2.4604 2.9849-0.40562 5.2188-1.9282 5.2188-3.7441v-59.05h-0.017685z"/>
 </g>
 <path d="m17.555 3.2343l0.1768 25.903c0 1.0174 2.659 4.2018 8.3232 4.2018 6.0178 0 8.7652-3.0076 8.7652-4.025l-0.2652-26.08h-17z" fill="#c5d9f9" fill-opacity=".818" stroke="#000"/>
 <g transform="matrix(.3617 0 0 .40958 26.171 20.526)">
  <path d="m22.68-41.969c0 2.4853-10.521 4.5-23.5 4.5s-23.5-2.0147-23.5-4.5 10.521-4.5 23.5-4.5 23.5 2.0147 23.5 4.5z" fill="#fff" stroke-width="2.434"/>
  <path d="m23.18-42.469c0 2.4853-10.521 4.5-23.5 4.5s-23.5-2.0147-23.5-4.5 10.521-4.5 23.5-4.5 23.5 2.0147 23.5 4.5z" fill="#c5d9f9" fill-opacity=".818" stroke="#000" stroke-width="6.324"/>
 </g>
 <path d="m32.287 5.5382c-0.13314 0.59297-1.591 1.092-3.662 1.3519v24.277c0 0.39309-0.57845 0.76296-1.5391 1.0452 2.9849-0.1723 5.2188-0.81907 5.2188-1.5904v-25.084h-0.017681z" fill="#fffff9"/>
 <path d="m47.772 3.2343l0.1768 25.903c0 1.0174 2.659 4.2018 8.3232 4.2018 6.0178 0 8.7652-3.0076 8.7652-4.025l-0.2652-26.08h-17z" fill="#c5d9f9" fill-opacity=".818" stroke="#000"/>
 <g transform="matrix(.3617 0 0 .40958 56.388 20.526)">
  <path d="m22.68-41.969c0 2.4853-10.521 4.5-23.5 4.5s-23.5-2.0147-23.5-4.5 10.521-4.5 23.5-4.5 23.5 2.0147 23.5 4.5z" fill="#fff" stroke-width="2.434"/>
  <path d="m23.18-42.469c0 2.4853-10.521 4.5-23.5 4.5s-23.5-2.0147-23.5-4.5 10.521-4.5 23.5-4.5 23.5 2.0147 23.5 4.5z" fill="#c5d9f9" fill-opacity=".818" stroke="#000" stroke-width="6.324"/>
 </g>
 <path d="m62.505 5.5382c-0.13314 0.59297-1.591 1.092-3.662 1.3519v24.277c0 0.39309-0.57845 0.76296-1.5391 1.0452 2.9849-0.1723 5.2188-0.81907 5.2188-1.5904v-25.084h-0.017693z" fill="#fffff9"/>
 <path d="m78.727 2.4455l0.1768 25.903c0 1.0174 2.659 4.2018 8.3232 4.2018 6.0178 0 8.7652-3.0076 8.7652-4.025l-0.2652-26.08h-17z" fill="#c5d9f9" fill-opacity=".818" stroke="#000"/>
 <g transform="matrix(.3617 0 0 .40958 87.342 19.738)">
  <path d="m22.68-41.969c0 2.4853-10.521 4.5-23.5 4.5s-23.5-2.0147-23.5-4.5 10.521-4.5 23.5-4.5 23.5 2.0147 23.5 4.5z" fill="#fff" stroke-width="2.434"/>
  <path d="m23.18-42.469c0 2.4853-10.521 4.5-23.5 4.5s-23.5-2.0147-23.5-4.5 10.521-4.5 23.5-4.5 23.5 2.0147 23.5 4.5z" fill="#c5d9f9" fill-opacity=".818" stroke="#000" stroke-width="6.324"/>
 </g>
 <path d="m93.459 4.7494c-0.13314 0.59296-1.591 1.092-3.662 1.3519v24.277c0 0.39309-0.57845 0.76297-1.5391 1.0452 2.9849-0.17231 5.2188-0.81907 5.2188-1.5904v-25.084h-0.017685z" fill="#fffff9"/>
</svg>
